<mxfile host="app.diagrams.net" modified="2024-02-28T11:05:16.293Z" agent="Mozilla/5.0 (Macintosh; Intel Mac OS X 10_15_7) AppleWebKit/537.36 (KHTML, like Gecko) Chrome/122.0.0.0 Safari/537.36" etag="KAQQLojp7x9_81mSgRSa" version="23.1.7" type="github">
  <diagram name="第 1 页" id="hYaXe4H1IOHM2DJvTghf">
    <mxGraphModel dx="1026" dy="663" grid="1" gridSize="10" guides="1" tooltips="1" connect="1" arrows="1" fold="1" page="1" pageScale="1" pageWidth="827" pageHeight="1169" math="0" shadow="0">
      <root>
        <mxCell id="0" />
        <mxCell id="1" parent="0" />
        <mxCell id="oQaOQNZd7ZE0H4n1gU6y-5" style="edgeStyle=orthogonalEdgeStyle;rounded=0;orthogonalLoop=1;jettySize=auto;html=1;exitX=0.5;exitY=1;exitDx=0;exitDy=0;exitPerimeter=0;entryX=0.5;entryY=0;entryDx=0;entryDy=0;" edge="1" parent="1" source="oQaOQNZd7ZE0H4n1gU6y-1" target="oQaOQNZd7ZE0H4n1gU6y-4">
          <mxGeometry relative="1" as="geometry" />
        </mxCell>
        <mxCell id="oQaOQNZd7ZE0H4n1gU6y-1" value="mq" style="shape=cylinder3;whiteSpace=wrap;html=1;boundedLbl=1;backgroundOutline=1;size=15;" vertex="1" parent="1">
          <mxGeometry x="354" y="40" width="60" height="80" as="geometry" />
        </mxCell>
        <mxCell id="oQaOQNZd7ZE0H4n1gU6y-2" value="topic:user-result-storage-group-small-insert" style="text;html=1;align=center;verticalAlign=middle;whiteSpace=wrap;rounded=0;" vertex="1" parent="1">
          <mxGeometry x="430" y="70" width="316" height="20" as="geometry" />
        </mxCell>
        <mxCell id="oQaOQNZd7ZE0H4n1gU6y-4" value="创建订单分销处理记录" style="rounded=1;whiteSpace=wrap;html=1;" vertex="1" parent="1">
          <mxGeometry x="324" y="180" width="120" height="60" as="geometry" />
        </mxCell>
      </root>
    </mxGraphModel>
  </diagram>
</mxfile>
